# xmcd
#
# Track frame offsets:
#	182
#	20860
#	38755
#	50545
#	62915
#	91675
#	104512
#	117762
#	133420
#	154207
#	165745
#	187572
#	200560
#	214767
#	229597
#	244247
#
# Disc length: 3456
#
# Revision: 3
# Processed by: cddbd v1.5.1PL0 Copyright (c) Steve Scherf et al.
# Submitted via: CDex 1.50beta10
# Normalized: r2:DSETVAR1,TDELIM( - )
#
DISCID=de0d7e10
DTITLE=Various Artist - 16 All-Time Jazz Sessions 4
DYEAR=1900
DGENRE=Jazz
TTITLE0=Miles Davis - But Not For Me (Part 1)
TTITLE1=Count Basie - Dickies Dream
TTITLE2=Ella Fitzgerald - A Tisket A Tasket
TTITLE3=Duke Ellington - Tonk
TTITLE4=Art Blakey - Jama
TTITLE5=Billie Holiday - I Gotta Right To Sing The Blues
TTITLE6=Louis Armstrong - Ain´t Misbehavin´
TTITLE7=Charlie Parker - Dewey Square
TTITLE8=Lionel Hampton - What´s New
TTITLE9=Dave Brubeck - All By Myself
TTITLE10=Modern Jazz Quartet - Willow Weep For Me
TTITLE11=Lena Horne - Love Me Or Leave Me
TTITLE12=Benny Goodman - South Of The Border
TTITLE13=Harry James - I´m Confessin´
TTITLE14=Django Reinhardt - Georgia On My Mind
TTITLE15=George Shearing - Sorry Wrong Rhumba
EXTD=
EXTT0=
EXTT1=
EXTT2=
EXTT3=
EXTT4=
EXTT5=
EXTT6=
EXTT7=
EXTT8=
EXTT9=
EXTT10=
EXTT11=
EXTT12=
EXTT13=
EXTT14=
EXTT15=
PLAYORDER=
